<svg width="23" height="23" viewBox="0 0 23 23" fill="none" xmlns="http://www.w3.org/2000/svg">
<path d="M18.6875 0C19.8754 0 20.8912 0.421767 21.7347 1.2653C22.5782 2.10883 23 3.12457 23 4.3125V18.6875C23 19.8754 22.5782 20.8912 21.7347 21.7347C20.8912 22.5782 19.8754 23 18.6875 23H4.3125C3.12457 23 2.10883 22.5782 1.2653 21.7347C0.421767 20.8912 0 19.8754 0 18.6875V4.3125C0 3.12457 0.421767 2.10883 1.2653 1.2653C2.10883 0.421767 3.12457 0 4.3125 0H18.6875ZM7.47201 5.49544H1.91667V17.2799H7.63672C8.80469 17.2799 9.78798 16.9929 10.5866 16.4189C11.3852 15.8449 11.7845 14.9939 11.7845 13.8659C11.7845 12.2886 11.0707 11.2904 9.64323 10.8711C10.7114 10.352 11.2454 9.53342 11.2454 8.41536C11.2454 7.84635 11.1481 7.36469 10.9535 6.97038C10.7588 6.57606 10.4768 6.27409 10.1074 6.06445C9.73806 5.85482 9.34375 5.70757 8.92448 5.62272C8.50521 5.53787 8.02105 5.49544 7.47201 5.49544ZM7.14258 10.2572H4.50716V7.50195H6.94792C8.13585 7.50195 8.72982 7.95117 8.72982 8.84961C8.72982 9.78798 8.20074 10.2572 7.14258 10.2572ZM7.27734 15.2734H4.50716V12.0241H7.33724C8.57509 12.0241 9.19401 12.5881 9.19401 13.7161C9.19401 14.7543 8.55512 15.2734 7.27734 15.2734ZM17.0104 15.7526C16.3316 15.7526 15.8125 15.5629 15.4531 15.1836C15.0937 14.8043 14.9141 14.2702 14.9141 13.5814H21.0684C21.0783 13.4816 21.0833 13.3318 21.0833 13.1322C21.0833 11.8145 20.7115 10.7139 19.9678 9.8304C19.2241 8.94694 18.2083 8.50521 16.9206 8.50521C15.6428 8.50521 14.5946 8.93446 13.776 9.79297C12.9575 10.6515 12.5482 11.7296 12.5482 13.0273C12.5482 14.375 12.9425 15.4581 13.7311 16.2767C14.5197 17.0953 15.5829 17.5046 16.9206 17.5046C18.967 17.5046 20.2997 16.5512 20.9186 14.6445H18.8522C18.7424 14.9839 18.5053 15.2535 18.141 15.4531C17.7766 15.6528 17.3997 15.7526 17.0104 15.7526ZM16.8607 10.2721C17.9887 10.2721 18.6076 10.8811 18.7174 12.099H14.9141C14.954 11.5399 15.1487 11.0957 15.498 10.7663C15.8474 10.4368 16.3016 10.2721 16.8607 10.2721ZM14.4349 6.28906H19.2116V7.44206H14.4349V6.28906Z" fill="#CACACA"/>
</svg>
