<svg width="23" height="23" viewBox="0 0 23 23" fill="none" xmlns="http://www.w3.org/2000/svg">
<path fill-rule="evenodd" clip-rule="evenodd" d="M11.5 0C5.15104 0 0 5.15104 0 11.5C0 17.849 5.15104 23 11.5 23C17.8365 23 23 17.849 23 11.5C23 5.15104 17.8365 0 11.5 0ZM19.0958 5.30054C20.5117 7.02491 21.2952 9.1817 21.3162 11.4128C20.9923 11.3505 17.7493 10.6892 14.4814 11.1013C14.4057 10.9384 14.3434 10.764 14.2686 10.5896C14.0654 10.1098 13.8494 9.63562 13.6208 9.16742C17.2375 7.69542 18.884 5.57558 19.0958 5.30054V5.30054ZM11.5 1.69721C13.9945 1.69721 16.2773 2.63158 18.0109 4.16588C17.8365 4.41504 16.352 6.39879 12.8599 7.70788C11.2499 4.75238 9.46737 2.33162 9.19233 1.95787C9.94877 1.78124 10.7232 1.69344 11.5 1.69625V1.69721ZM7.32167 2.61912C7.58329 2.96892 9.32937 5.40117 10.9633 8.29437C6.37292 9.51721 2.31917 9.49229 1.88312 9.49229C2.51946 6.44862 4.57796 3.91671 7.32167 2.61912ZM1.67133 11.5125V11.2135C2.09587 11.2259 6.85975 11.2882 11.7626 9.81621C12.0491 10.3653 12.3107 10.926 12.5599 11.4875C12.4353 11.5249 12.2983 11.5623 12.1737 11.5997C7.10987 13.2336 4.41504 17.6985 4.19079 18.0732C2.56873 16.273 1.67114 13.9357 1.67133 11.5125V11.5125ZM11.5 21.3287C9.31693 21.3321 7.19578 20.6032 5.47592 19.2587C5.65033 18.8964 7.64558 15.0545 13.1838 13.1215C13.2087 13.109 13.2221 13.109 13.2461 13.0966C14.6309 16.676 15.1915 19.6823 15.342 20.5428C14.1565 21.0546 12.8599 21.3287 11.5 21.3287ZM16.9759 19.6449C16.8763 19.0459 16.352 16.1776 15.0669 12.6471C18.148 12.1612 20.8418 12.9595 21.1792 13.0717C20.7546 15.8029 19.183 18.1604 16.9759 19.6449Z" fill="#CACACA"/>
</svg>
