<svg width="67" height="62" viewBox="0 0 67 62" fill="none" xmlns="http://www.w3.org/2000/svg">
<path d="M20.592 18.5202L20.844 39.7962C20.844 41.7042 19.476 42.6402 17.424 42.6402V43.0002H29.556V42.6402C27.648 42.6402 26.28 41.6682 26.172 39.7962V18.5202H31.068C34.272 18.5202 36.216 22.4082 36.864 24.5682H37.224L36.828 17.8002H10.512L10.188 24.5682H10.548C11.232 22.4082 13.032 18.5202 16.272 18.5202H20.592ZM43.9618 17.1522C38.5618 17.1522 34.5298 19.9962 34.5298 24.3522C34.5298 32.4882 48.7858 33.5322 48.7858 38.6442C48.7858 40.9122 46.6618 42.9642 43.9618 42.9642C39.9298 42.9642 36.4738 39.4362 35.2498 35.4762H34.8898V43.2162C35.1418 42.6762 36.2218 42.7122 36.8698 42.7122C38.5978 42.7122 41.1178 43.6842 43.9618 43.6842C49.8298 43.6842 53.7178 41.0202 53.7178 36.9882C53.7178 28.8522 39.4618 28.7442 39.4618 22.3002C39.4618 19.8162 41.2618 17.8722 43.9618 17.8722C48.0658 17.8722 51.1258 21.2922 52.3498 25.4682H52.9618V17.1162C52.6378 17.8362 52.2418 18.6642 51.3778 18.6642C49.7938 18.6642 48.3898 17.1522 43.9618 17.1522Z" fill="white"/>
<path d="M66 1H1V61H66V1Z" stroke="white" stroke-width="2"/>
</svg>
