<svg width="27" height="24" viewBox="0 0 27 24" fill="none" xmlns="http://www.w3.org/2000/svg">
<path d="M26.4346 4.7381C26.2818 4.13251 25.984 3.58425 25.573 3.15158C25.1504 2.70561 24.6324 2.3866 24.068 2.22466C21.9555 1.60629 13.4921 1.60629 13.4921 1.60629C9.96385 1.56171 6.43644 1.75779 2.9298 2.19343C2.36534 2.36734 1.84833 2.69348 1.42475 3.14284C1.00856 3.58756 0.707099 4.13597 0.54962 4.73685C0.171326 7.00012 -0.0124755 9.2982 0.000694238 11.6001C-0.0128039 13.8999 0.170546 16.1972 0.54962 18.4633C0.703725 19.0617 1.00406 19.6076 1.42138 20.0486C1.8387 20.4896 2.35838 20.8081 2.9298 20.9768C5.07039 21.5939 13.4921 21.5939 13.4921 21.5939C17.0249 21.6385 20.5568 21.4424 24.068 21.0068C24.6324 20.8448 25.1504 20.5258 25.573 20.0798C25.9839 19.6472 26.2813 19.0989 26.4335 18.4933C26.8217 16.2309 27.0104 13.9319 26.9971 11.6288C27.0263 9.31601 26.8378 7.00615 26.4346 4.73685V4.7381ZM10.8015 15.8774V7.32399L17.843 11.6013L10.8015 15.8774Z" fill="#CACACA"/>
</svg>
